<svg width="1040" height="500" viewBox="0 0 1040 500" fill="none" xmlns="http://www.w3.org/2000/svg">
  <rect width="1040" height="500" rx="24" fill="#0F1115"/>
  <text x="520" y="54" text-anchor="middle" fill="#F4F6F8" font-family="-apple-system,BlinkMacSystemFont,Segoe UI,sans-serif" font-size="30" font-weight="700">Safe Data Flow / 安全資料流</text>

  <g font-family="-apple-system,BlinkMacSystemFont,Segoe UI,sans-serif">
    <rect x="62" y="120" width="250" height="118" rx="16" fill="#19202A" stroke="#3F4958"/>
    <text x="187" y="163" text-anchor="middle" fill="#F4F6F8" font-size="22" font-weight="700">Codex app-server</text>
    <text x="187" y="194" text-anchor="middle" fill="#AAB2BD" font-size="16">Local JSON-RPC</text>
    <text x="187" y="218" text-anchor="middle" fill="#AAB2BD" font-size="16">本機 JSON-RPC</text>

    <rect x="62" y="282" width="250" height="118" rx="16" fill="#1B241E" stroke="#465C4B"/>
    <text x="187" y="325" text-anchor="middle" fill="#F4F6F8" font-size="22" font-weight="700">Claude Code</text>
    <text x="187" y="356" text-anchor="middle" fill="#AAB2BD" font-size="16">Official statusline JSON</text>
    <text x="187" y="380" text-anchor="middle" fill="#AAB2BD" font-size="16">官方 statusline JSON</text>

    <rect x="405" y="202" width="230" height="118" rx="16" fill="#1D2027" stroke="#525966"/>
    <text x="520" y="245" text-anchor="middle" fill="#F4F6F8" font-size="22" font-weight="700">AI Usage Bar</text>
    <text x="520" y="276" text-anchor="middle" fill="#AAB2BD" font-size="16">Usage %, reset time</text>
    <text x="520" y="300" text-anchor="middle" fill="#AAB2BD" font-size="16">只顯示百分比與重置時間</text>

    <rect x="730" y="202" width="248" height="118" rx="16" fill="#221B1D" stroke="#684B52"/>
    <text x="854" y="244" text-anchor="middle" fill="#F4F6F8" font-size="22" font-weight="700">No secrets touched</text>
    <text x="854" y="275" text-anchor="middle" fill="#AAB2BD" font-size="16">No cookie / Keychain / token</text>
    <text x="854" y="299" text-anchor="middle" fill="#AAB2BD" font-size="16">不讀 cookie / Keychain / token</text>

    <path d="M317 179 C358 179 371 236 400 248" stroke="#0A84FF" stroke-width="4" fill="none"/>
    <path d="M317 341 C358 341 371 286 400 274" stroke="#32D74B" stroke-width="4" fill="none"/>
    <path d="M640 261 H724" stroke="#FF9F0A" stroke-width="4" fill="none"/>
    <path d="M390 247 L405 249 L396 237" fill="#0A84FF"/>
    <path d="M390 275 L405 273 L396 286" fill="#32D74B"/>
    <path d="M724 261 L710 252 V270 Z" fill="#FF9F0A"/>
  </g>
</svg>
